<svg width="99" height="24" fill="none" xmlns="http://www.w3.org/2000/svg"><path d="M10.277 2.195c2.094 0 3.79.543 5.086 1.63 1.297 1.077 1.946 2.417 1.946 4.019 0 1.648-.684 3.039-2.051 4.172-1.36 1.132-3.262 1.699-5.707 1.699-1.133 0-2.246-.078-3.34-.235v2.497c0 1.148.41 1.843 1.23 2.085L7.242 19H.645l-.188-.938c.828-.242 1.242-.937 1.242-2.085V5.242c0-1.172-.414-1.875-1.242-2.11l.188-.937h9.632zm-1.57 9.633c1.328 0 2.332-.394 3.012-1.183a4.15 4.15 0 001.02-2.778c0-1.054-.423-1.957-1.266-2.707-.836-.758-1.852-1.137-3.047-1.137-.828 0-1.567.063-2.215.188v7.3a9.712 9.712 0 002.496.317zm22.207 5.8l.34.845c-.656.656-1.594.984-2.813.984-1.648 0-2.687-.68-3.117-2.039h-.14a3.3 3.3 0 01-1.618 1.559c-.71.32-1.46.48-2.25.48-1.171 0-2.144-.309-2.918-.926-.773-.617-1.16-1.445-1.16-2.484 0-.547.09-1.04.27-1.477a3.02 3.02 0 01.855-1.136c.383-.32.766-.59 1.149-.809.39-.227.902-.434 1.535-.621a22.21 22.21 0 011.605-.422 74.77 74.77 0 011.711-.34l-.281-1.91c-.063-.477-.227-.848-.492-1.113a1.296 1.296 0 00-.95-.399c-.35 0-.648.117-.89.352-.242.226-.328.515-.258.867.125.563.008 1.027-.351 1.395-.36.367-.82.55-1.383.55-.547 0-.977-.168-1.29-.504-.304-.335-.456-.793-.456-1.37 0-.829.425-1.551 1.277-2.169.86-.617 2.098-.925 3.715-.925 1.422 0 2.613.394 3.574 1.183.961.781 1.543 1.961 1.746 3.54l.621 4.991c.157 1.36.606 2.043 1.348 2.051.188-.008.395-.058.621-.152zm-7.863-.433c.476 0 .91-.226 1.3-.68.391-.453.579-.96.563-1.523l-.375-2.543c-2.242.492-3.363 1.446-3.363 2.86 0 .593.176 1.058.527 1.394.352.328.8.492 1.348.492zm12.469 2.262c-2.563 0-3.844-1.2-3.844-3.598V8.395H29.52V7.047c2.195-.64 3.816-2.008 4.863-4.102h1.183v3.528h3.141v1.922h-3.14v7.535c0 1.133.437 1.699 1.312 1.699.46 0 .934-.094 1.418-.281l.363 1.558a8.85 8.85 0 01-3.14.551zm17.683-3.48c.11 1.148.598 1.843 1.465 2.085L54.48 19h-5.93l-.198-.938c.78-.242 1.117-.937 1.007-2.085l-.62-5.93c-.063-.672-.278-1.188-.645-1.547a1.854 1.854 0 00-1.348-.54c-.594 0-1.09.192-1.488.575-.399.383-.598.902-.598 1.559v5.883c0 1.148.426 1.843 1.278 2.085l-.223.938h-5.93l-.187-.938c.812-.226 1.218-.921 1.218-2.085V5.242c0-1.187-.406-1.883-1.218-2.086l.187-.937c1.844-.29 3.485-.91 4.922-1.864L45 .473c-.227.96-.34 2.312-.34 4.054V7.41h.188c.734-.945 1.77-1.418 3.105-1.418 1.375 0 2.48.426 3.316 1.278.844.843 1.344 2.128 1.5 3.855l.434 4.852zm16.91-9.985c.672 0 1.2.207 1.582.621.39.414.586.95.586 1.606 0 .625-.37 1.812-1.113 3.562L68.028 19h-3.024l-1.828-5.473h-.07L61.23 19h-3.55l-2.344-8.086c-.352-1.172-.984-1.867-1.898-2.086l.187-.96c1.844-.274 3.238-.9 4.184-1.876h.328l2.472 8.66h.118l2.742-8.18h1.77l2.765 8.18h.117l1.559-3.668c.093-.257.144-.449.152-.574 0-.18-.09-.355-.27-.527a2.689 2.689 0 00-.574-.457c-.21-.133-.406-.34-.586-.621a1.935 1.935 0 01-.258-1.008c0-.547.176-.984.528-1.313.351-.328.832-.492 1.441-.492zm16.63 11.637l.339.844c-.656.656-1.594.984-2.813.984-1.648 0-2.687-.68-3.117-2.039h-.14a3.299 3.299 0 01-1.618 1.559c-.71.32-1.46.48-2.25.48-1.171 0-2.144-.309-2.917-.926-.774-.617-1.16-1.445-1.16-2.484 0-.547.09-1.04.269-1.477a3.02 3.02 0 01.855-1.136c.383-.32.766-.59 1.149-.809.39-.227.902-.434 1.535-.621a22.212 22.212 0 011.606-.422 74.746 74.746 0 011.71-.34l-.28-1.91c-.063-.477-.227-.848-.493-1.113a1.296 1.296 0 00-.95-.399c-.35 0-.648.117-.89.352-.242.226-.328.515-.258.867.125.563.008 1.027-.351 1.395-.36.367-.82.55-1.383.55-.547 0-.977-.168-1.29-.504-.304-.335-.456-.793-.456-1.37 0-.829.426-1.551 1.277-2.169.86-.617 2.098-.925 3.715-.925 1.422 0 2.613.394 3.574 1.183.961.781 1.543 1.961 1.746 3.54l.621 4.991c.157 1.36.606 2.043 1.348 2.051.188-.008.395-.058.621-.152zm-7.864-.434c.477 0 .91-.226 1.3-.68.391-.453.579-.96.563-1.523l-.375-2.543c-2.242.492-3.363 1.446-3.363 2.86 0 .593.176 1.058.527 1.394.352.328.801.492 1.348.492zm17.59-11.203c.656 0 1.187.23 1.594.692.406.453.609 1 .609 1.64 0 1.149-.352 2.7-1.055 4.653-1.133 3.453-2.57 6.23-4.312 8.332-.813 1.054-1.606 1.828-2.38 2.32a4.59 4.59 0 01-2.542.75c-.688 0-1.27-.2-1.746-.598a1.854 1.854 0 01-.703-1.488c0-.563.187-1.023.562-1.383.375-.36.836-.539 1.383-.539.336 0 .633.07.89.211.266.148.462.309.587.48.132.18.265.34.398.481.14.148.265.223.375.223.492 0 1.11-.524 1.852-1.57.304-.384.585-.782.843-1.196h-.843l-3.774-8.086a3.663 3.663 0 00-1.113-1.394 3.759 3.759 0 00-1.453-.692l.199-.96c2.031-.321 3.398-.946 4.101-1.876h.34l4.383 9.27h.152c.43-.992.746-1.914.95-2.766.32-.945.472-1.648.457-2.11-.016-.195-.117-.382-.305-.562a2.802 2.802 0 00-.61-.48 2.254 2.254 0 01-.609-.61 1.668 1.668 0 01-.27-.937c0-.547.192-.984.575-1.313.383-.328.871-.492 1.465-.492z" fill="#171717"/></svg>