<svg width="119" height="24" viewBox="0 0 119 24" fill="none" xmlns="http://www.w3.org/2000/svg">
<path d="M79.1788 0.0957371H99.7672V3.89581H91.6V23.8875H87.5161V3.89581H79.1788V0.0957371Z" fill="#646464"/>
<path d="M45.3187 0.0957371V3.89581H28.8158V10.009H42.0874V13.809H28.8158V20.0874H45.3187V23.8875H24.7321V3.89581H24.7304V0.0957371H45.3187Z" fill="#646464"/>
<path d="M55.5992 0.10566H50.2549L69.3967 23.8974H74.7565L65.1844 12.0097L74.7412 0.123812L69.3967 0.132071L62.5088 8.68673L55.5992 0.10566Z" fill="#646464"/>
<path d="M61.0831 17.1003L58.4068 13.7727L50.2396 23.9156H55.5991L61.0831 17.1003Z" fill="#646464"/>
<path fill-rule="evenodd" clip-rule="evenodd" d="M24.8752 23.8875L5.70768 0.0858154H0.603149V23.8776H4.68678V5.17129L19.7452 23.8875H24.8752Z" fill="#646464"/>
<path d="M100.685 23.7422C100.386 23.7422 100.132 23.6386 99.9187 23.4314C99.7057 23.2242 99.6004 22.9733 99.6031 22.6761C99.6004 22.3871 99.7057 22.139 99.9187 21.9318C100.132 21.7246 100.386 21.621 100.685 21.621C100.973 21.621 101.225 21.7246 101.438 21.9318C101.654 22.139 101.761 22.3871 101.764 22.6761C101.761 22.8724 101.712 23.0524 101.612 23.2132C101.51 23.3769 101.38 23.505 101.216 23.5977C101.056 23.6931 100.879 23.7422 100.685 23.7422Z" fill="#646464"/>
<path d="M107.655 13.7194H109.465V20.6912C109.462 21.3319 109.323 21.88 109.053 22.3408C108.779 22.8015 108.399 23.1532 107.913 23.4014C107.428 23.6467 106.861 23.7722 106.216 23.7722C105.627 23.7722 105.099 23.6658 104.628 23.4586C104.158 23.2514 103.784 22.9406 103.51 22.5316C103.233 22.1226 103.098 21.6128 103.098 21.002H104.91C104.913 21.2692 104.974 21.501 105.09 21.6945C105.206 21.8881 105.367 22.0353 105.572 22.139C105.779 22.2426 106.017 22.2944 106.285 22.2944C106.576 22.2944 106.825 22.2344 107.027 22.1117C107.229 21.9917 107.384 21.8118 107.492 21.5718C107.597 21.3347 107.652 21.0402 107.655 20.6912V13.7194Z" fill="#646464"/>
<path d="M116.91 16.446C116.866 16.0233 116.673 15.6934 116.335 15.459C115.995 15.2217 115.555 15.1045 115.015 15.1045C114.636 15.1045 114.31 15.1618 114.039 15.2736C113.767 15.3881 113.557 15.5407 113.413 15.7343C113.269 15.9279 113.197 16.1488 113.192 16.3969C113.192 16.6041 113.241 16.7841 113.338 16.934C113.435 17.0867 113.565 17.2149 113.734 17.3185C113.9 17.4248 114.085 17.512 114.288 17.5829C114.492 17.6538 114.697 17.7138 114.902 17.7629L115.845 17.9946C116.224 18.0819 116.592 18.1992 116.944 18.3491C117.295 18.4963 117.613 18.6845 117.893 18.9108C118.172 19.1371 118.394 19.4097 118.557 19.7287C118.72 20.0477 118.803 20.4213 118.803 20.8521C118.803 21.4328 118.654 21.9427 118.352 22.3844C118.05 22.8233 117.616 23.1669 117.046 23.415C116.479 23.6604 115.793 23.7858 114.985 23.7858C114.204 23.7858 113.524 23.6659 112.951 23.4259C112.376 23.1887 111.927 22.8397 111.603 22.3816C111.28 21.9236 111.105 21.3646 111.081 20.7075H112.874C112.899 21.0511 113.009 21.3374 113.197 21.5691C113.388 21.7982 113.637 21.9672 113.942 22.0817C114.249 22.1935 114.592 22.2508 114.971 22.2508C115.367 22.2508 115.715 22.1908 116.017 22.0735C116.316 21.9563 116.551 21.7927 116.72 21.5801C116.891 21.3701 116.977 21.122 116.98 20.8384C116.977 20.5794 116.899 20.364 116.75 20.1949C116.598 20.0259 116.388 19.8841 116.119 19.7696C115.848 19.6551 115.533 19.5515 115.173 19.4615L114.027 19.1725C113.2 18.9626 112.544 18.6436 112.065 18.2155C111.584 17.7874 111.346 17.2203 111.346 16.5087C111.346 15.9252 111.507 15.4126 111.831 14.9736C112.151 14.5347 112.591 14.1939 113.148 13.9512C113.706 13.7058 114.337 13.5858 115.04 13.5858C115.754 13.5858 116.379 13.7058 116.919 13.9512C117.458 14.1939 117.882 14.532 118.189 14.9627C118.496 15.3935 118.656 15.887 118.665 16.446H116.91Z" fill="#646464"/>
</svg>
