<svg width="113" height="24" viewBox="0 0 113 24" fill="none" xmlns="http://www.w3.org/2000/svg">
<path d="M113 10.8584V8.88238H110.546V5.81043L110.464 5.83586L108.159 6.54105L108.113 6.55486V8.88249H104.475V7.5858C104.475 6.98202 104.61 6.51997 104.877 6.21183C105.141 5.90738 105.519 5.7526 106.001 5.7526C106.347 5.7526 106.706 5.83423 107.067 5.9952L107.158 6.03564V3.95463L107.115 3.93897C106.778 3.81789 106.32 3.75691 105.752 3.75691C105.036 3.75691 104.386 3.91267 103.819 4.22135C103.252 4.53047 102.805 4.97176 102.492 5.53283C102.181 6.09324 102.023 6.7405 102.023 7.45678V8.88238H100.314V10.8584H102.023V19.183H104.475V10.8584H108.113V16.1485C108.113 18.3273 109.141 19.4314 111.168 19.4314C111.501 19.4314 111.851 19.3923 112.209 19.3159C112.574 19.2374 112.822 19.1591 112.968 19.0754L113 19.0563V17.062L112.9 17.128C112.767 17.2166 112.601 17.2891 112.407 17.3431C112.212 17.3979 112.049 17.4254 111.922 17.4254C111.448 17.4254 111.096 17.2975 110.879 17.045C110.658 16.7903 110.546 16.3447 110.546 15.7215V10.8584H113ZM94.8364 17.4258C93.9461 17.4258 93.2442 17.1306 92.7495 16.5491C92.2518 15.9646 91.9997 15.1314 91.9997 14.0727C91.9997 12.9805 92.2518 12.1256 92.7497 11.5309C93.2447 10.94 93.9399 10.6401 94.8164 10.6401C95.6669 10.6401 96.3439 10.9265 96.8289 11.4919C97.3163 12.0601 97.5637 12.9081 97.5637 14.0131C97.5637 15.1316 97.3311 15.9908 96.8724 16.5656C96.4169 17.136 95.7319 17.4258 94.8364 17.4258ZM94.9454 8.63424C93.2469 8.63424 91.8978 9.13194 90.9359 10.1135C89.9746 11.0952 89.4873 12.4538 89.4873 14.1518C89.4873 15.7645 89.963 17.0618 90.9014 18.0068C91.8399 18.9522 93.117 19.4311 94.6971 19.4311C96.3435 19.4311 97.6657 18.9265 98.6272 17.9313C99.5886 16.9372 100.076 15.5915 100.076 13.9332C100.076 12.2952 99.6186 10.9883 98.7168 10.0495C97.8145 9.11031 96.5455 8.63424 94.9454 8.63424ZM85.5325 8.63424C84.3771 8.63424 83.4214 8.92977 82.6913 9.51247C81.9568 10.0986 81.5842 10.8674 81.5842 11.7977C81.5842 12.2813 81.6646 12.7108 81.8229 13.0752C81.9821 13.4407 82.2285 13.7625 82.5559 14.0326C82.8808 14.3006 83.3823 14.5812 84.0468 14.8667C84.6055 15.0966 85.0221 15.2911 85.2868 15.4443C85.5454 15.5945 85.729 15.7455 85.8327 15.8926C85.9335 16.0365 85.9846 16.2334 85.9846 16.4765C85.9846 17.1685 85.4663 17.5052 84.3999 17.5052C84.0044 17.5052 83.5532 17.4226 83.059 17.2598C82.5683 17.0994 82.1052 16.8646 81.6858 16.5635L81.584 16.4905V18.852L81.6214 18.8694C81.9684 19.0296 82.406 19.1647 82.9217 19.271C83.4365 19.3774 83.9042 19.4316 84.3105 19.4316C85.5642 19.4316 86.5739 19.1346 87.3106 18.5485C88.052 17.9583 88.4277 17.1713 88.4277 16.2089C88.4277 15.5145 88.2254 14.9191 87.8268 14.4389C87.4308 13.9626 86.7436 13.5254 85.785 13.1389C85.0213 12.8324 84.5321 12.5779 84.3303 12.3826C84.1357 12.1939 84.0369 11.9271 84.0369 11.5891C84.0369 11.2896 84.1589 11.0496 84.4092 10.8552C84.6615 10.6599 85.0126 10.5606 85.4531 10.5606C85.8617 10.5606 86.2799 10.6251 86.6957 10.7517C87.1113 10.8782 87.4762 11.0476 87.7809 11.2549L87.8811 11.3234V9.08325L87.8426 9.06672C87.5616 8.94618 87.1909 8.84304 86.7407 8.75934C86.2926 8.67619 85.8861 8.63424 85.5325 8.63424ZM75.1898 17.4258C74.2997 17.4258 73.5975 17.1306 73.103 16.5491C72.6052 15.9646 72.3534 15.1316 72.3534 14.0727C72.3534 12.9805 72.6055 12.1256 73.1035 11.5309C73.5981 10.94 74.2932 10.6401 75.1701 10.6401C76.0203 10.6401 76.6973 10.9265 77.1824 11.4919C77.6699 12.0601 77.9171 12.9081 77.9171 14.0131C77.9171 15.1316 77.6844 15.9908 77.2258 16.5656C76.7702 17.136 76.0856 17.4258 75.1898 17.4258ZM75.2991 8.63424C73.6001 8.63424 72.2509 9.13194 71.2896 10.1135C70.3283 11.0952 69.8406 12.4538 69.8406 14.1518C69.8406 15.7652 70.3167 17.0618 71.2551 18.0068C72.1936 18.9522 73.4706 19.4311 75.0506 19.4311C76.6969 19.4311 78.0194 18.9265 78.9809 17.9313C79.9421 16.9372 80.4293 15.5915 80.4293 13.9332C80.4293 12.2952 79.9722 10.9883 79.0702 10.0495C78.1677 9.11031 76.8988 8.63424 75.2991 8.63424ZM66.1173 10.6662V8.88238H63.6943V19.1828H66.1173V13.9137C66.1173 13.0178 66.3204 12.2817 66.7213 11.7258C67.117 11.1764 67.6444 10.8981 68.2883 10.8981C68.5065 10.8981 68.7515 10.934 69.0168 11.0052C69.2794 11.076 69.4697 11.1528 69.5818 11.2337L69.6837 11.3075V8.86478L69.6444 8.84793C69.4188 8.75206 69.0996 8.70369 68.6957 8.70369C68.0868 8.70369 67.5419 8.89934 67.0752 9.28454C66.6655 9.62312 66.3694 10.0873 66.143 10.6662H66.1173ZM59.3553 8.63424C58.2437 8.63424 57.2522 8.8726 56.4088 9.34247C55.5638 9.81344 54.9102 10.4858 54.4656 11.3408C54.0229 12.1937 53.7981 13.1899 53.7981 14.301C53.7981 15.2742 54.016 16.1673 54.4467 16.9545C54.8777 17.7429 55.4877 18.3598 56.2598 18.7876C57.0309 19.2148 57.922 19.4315 58.9087 19.4315C60.0602 19.4315 61.0433 19.2013 61.8316 18.7472L61.8634 18.729V16.5092L61.7616 16.5835C61.4045 16.8436 61.0055 17.0512 60.5762 17.2008C60.1479 17.3502 59.7575 17.4258 59.4151 17.4258C58.4644 17.4258 57.7012 17.1283 57.1472 16.5418C56.592 15.9545 56.3105 15.1299 56.3105 14.0922C56.3105 13.048 56.6041 12.2022 57.1826 11.578C57.7594 10.9558 58.5241 10.6401 59.4551 10.6401C60.2515 10.6401 61.0276 10.9098 61.7618 11.4424L61.8634 11.5162V9.17726L61.8306 9.15879C61.5543 9.00412 61.1775 8.87641 60.7097 8.77956C60.2438 8.68293 59.7882 8.63424 59.3553 8.63424ZM52.1293 8.88249H49.7064V19.1828H52.1293V8.88249ZM50.9426 4.4945C50.5439 4.4945 50.196 4.63025 49.9103 4.89927C49.6233 5.16904 49.4778 5.5087 49.4778 5.90955C49.4778 6.30411 49.6216 6.63757 49.9058 6.90017C50.1882 7.16201 50.5371 7.29472 50.9427 7.29472C51.3483 7.29472 51.6985 7.16201 51.9842 6.90061C52.2718 6.63757 52.4177 6.30421 52.4177 5.90955C52.4177 5.52272 52.2757 5.18654 51.9961 4.91013C51.7166 4.63427 51.3621 4.4945 50.9426 4.4945ZM44.8972 8.12252V19.1828H47.37V4.80981H43.9476L39.5975 15.4856L35.3761 4.80981H31.8144V19.1827H34.1381V8.12143H34.2178L38.6756 19.1828H40.4292L44.8174 8.12252H44.8972Z" fill="#646464"/>
<path d="M12.0388 11.4051H0.640503V0.00683594H12.0388V11.4051Z" fill="#646464"/>
<path d="M24.6238 11.4051H13.2257V0.00683594H24.6238V11.4051Z" fill="#646464"/>
<path d="M12.0384 23.9945H0.640503V12.5964H12.0384V23.9945Z" fill="#646464"/>
<path d="M24.6238 23.9945H13.2257V12.5964H24.6238V23.9945Z" fill="#646464"/>
</svg>
