<svg width="58" height="24" viewBox="0 0 58 24" fill="none" xmlns="http://www.w3.org/2000/svg">
<path d="M49.5381 10.4803C48.5844 10.7004 46.0655 10.8226 46.0655 10.8226L45.7558 11.8171C45.7558 11.8171 47.003 11.7111 47.9159 11.8008C47.9159 11.8008 48.2094 11.7764 48.242 12.1269C48.2583 12.4855 48.2176 12.8605 48.2176 12.8605C48.2176 12.8605 48.1931 13.0806 47.8915 13.1377C47.541 13.1947 45.177 13.3007 45.177 13.3007L44.7939 14.5886C44.7939 14.5886 44.6553 14.8821 44.9732 14.8006C45.2667 14.7191 47.7448 14.2463 48.0708 14.3115C48.4132 14.393 48.8045 14.8658 48.6903 15.2897C48.5599 15.8032 46.0818 17.3846 44.582 17.2787C44.582 17.2787 43.7913 17.3276 43.131 16.2597C42.4952 15.2408 43.3511 13.3252 43.3511 13.3252C43.3511 13.3252 42.968 12.4285 43.2533 12.1024C43.2533 12.1024 43.4163 11.9638 43.9054 11.9231L44.5167 10.6677C44.5167 10.6677 43.8239 10.7085 43.4163 10.2031C43.0413 9.71402 43.0087 9.50208 43.3022 9.37165C43.6119 9.20862 46.4813 8.69507 48.4539 8.76029C48.4539 8.76029 49.1468 8.67877 49.7582 9.87705C49.7582 9.87705 50.0353 10.3661 49.5463 10.4803M42.1039 15.306C41.8593 15.901 41.1828 16.5287 40.3676 16.1456C39.5362 15.7543 38.2238 13.0806 38.2238 13.0806C38.2238 13.0806 37.7347 12.0861 37.6368 12.1187C37.6368 12.1187 37.5309 11.9231 37.4738 13.0154C37.3923 14.0996 37.4901 16.2108 37.0418 16.545C36.6342 16.8711 36.1451 16.7325 35.868 16.3494C35.6397 15.9663 35.5419 15.0451 35.6723 13.4393C35.819 11.8334 36.1859 10.1216 36.6505 9.59174C37.1396 9.05374 37.5309 9.44502 37.6776 9.59174C37.6776 9.59174 38.3053 10.1624 39.365 11.8497L39.5443 12.1595C39.5443 12.1595 40.5062 13.7653 40.604 13.7572C40.604 13.7572 40.6855 13.8387 40.7507 13.7735C40.8486 13.749 40.8159 13.2273 40.8159 13.2273C40.8159 13.2273 40.6366 11.4911 39.7399 8.5565C39.7399 8.5565 39.6095 8.18153 39.6992 7.82286C39.7807 7.4968 40.1312 7.65983 40.1312 7.65983C40.1312 7.65983 41.4844 8.31195 42.1446 10.5129C42.7968 12.7138 42.3566 14.7109 42.112 15.306M35.4685 9.65696C35.3381 9.8852 35.281 10.2031 34.7186 10.2928C34.7186 10.2928 29.2571 10.6759 28.988 11.059C28.988 11.059 28.8087 11.2873 29.1022 11.3443C29.4119 11.4095 30.651 11.5726 31.2379 11.6052C31.8737 11.6052 34.0094 11.6215 34.792 12.5834C34.792 12.5834 35.2403 13.0398 35.224 14.0751C35.2077 15.1348 35.0202 15.5098 34.6045 15.8929C34.1724 16.2516 30.4716 17.9145 28.0832 15.3712C28.0832 15.3712 26.9909 14.1485 28.4664 13.2192C28.4664 13.2192 29.5261 12.5671 32.2405 13.3252C32.2405 13.3252 33.0557 13.6186 33.0231 13.9202C32.9742 14.2463 32.3465 14.5723 31.4335 14.556C30.5531 14.5316 29.901 14.1077 30.0314 14.1811C30.1537 14.2218 29.0777 13.6594 28.7435 14.0425C28.4174 14.4012 28.499 14.6131 28.825 14.8332C29.6402 15.306 32.8437 15.1348 33.7975 14.0669C33.7975 14.0669 34.1806 13.6349 33.6018 13.2844C33.0312 12.9583 31.3683 12.7545 30.7243 12.7301C30.113 12.6975 27.8224 12.7301 27.48 12.135C27.48 12.135 27.154 11.7111 27.5126 10.5536C27.8876 9.33089 30.5531 8.8581 31.7107 8.76029C31.7107 8.76029 34.8898 8.62986 35.4848 9.28198C35.4848 9.28198 35.5663 9.42871 35.4685 9.6488M26.4529 16.8222C26.0698 17.1075 25.2546 16.9852 25.0182 16.6591C24.79 16.3738 24.7085 15.2489 24.7492 13.48C24.8063 11.6704 24.8308 9.45317 25.2383 9.0945C25.6459 8.74398 25.8905 9.05374 26.0535 9.29014C26.2165 9.53468 26.4285 9.80368 26.4611 10.3661C26.51 10.9367 26.6486 13.8713 26.6486 13.8713C26.6486 13.8713 26.8279 16.545 26.4611 16.8222M27.2681 7.28486C26.1432 7.66798 25.3769 7.5457 24.7248 7.2604C24.4395 7.77395 24.2683 7.92883 24.0564 7.96143C23.7303 7.99404 23.445 7.47234 23.4042 7.30931C23.339 7.18704 23.1841 6.96695 23.3716 6.4697C22.7358 5.89909 22.6869 5.13285 22.801 4.6193C22.9478 4.01608 24.0238 1.74995 27.2844 1.48095C27.2844 1.48095 28.8821 1.36683 29.1592 2.21459H29.2081C29.2081 2.21459 30.7569 2.21459 30.7243 3.60036C30.7243 4.98612 29.0125 6.71425 27.2681 7.30931M28.719 3.33951C27.692 3.50254 26.1106 4.872 25.3525 6.00506C26.5181 6.217 28.556 6.13549 29.469 4.29324C29.469 4.29324 29.901 3.13572 28.719 3.33951ZM24.2112 4.23618C23.8852 4.76603 23.8689 5.08394 24.0238 5.29588C24.4069 4.72527 25.0835 3.8286 26.1024 3.12757C25.3199 3.20908 24.6596 3.53514 24.2112 4.23618ZM51.9836 16.7651C51.2336 18.6074 50.5978 20.4741 50.231 23.27C50.231 23.27 50.1495 23.8162 49.7011 23.6369C49.2528 23.4738 48.5192 22.7402 48.3561 21.7049C48.1931 20.3518 48.7963 18.0694 50.0272 15.4446C49.6685 14.8739 49.4158 14.0262 49.6196 12.8361C49.6196 12.8361 49.9457 10.6351 52.1466 8.64616C52.1466 8.64616 52.4075 8.42607 52.5542 8.49944C52.7335 8.58095 52.6601 9.28199 52.5134 9.64065C52.383 9.98302 51.4048 11.6785 51.4048 11.6785C51.4048 11.6785 50.7934 12.8361 50.9646 13.7409C52.1221 11.9638 54.7551 8.36086 56.3854 9.50208C57.4207 10.2357 57.4207 12.5997 56.6463 13.9691C56.0349 15.0533 54.3068 17.295 51.9999 16.7733M55.3909 11.2302C54.7877 11.8823 53.7117 13.1214 52.8639 14.8006C53.7606 14.7028 54.6328 14.2055 54.9018 13.9528C55.3339 13.5697 56.3283 12.5345 56.1735 11.165C56.1735 11.165 56.0756 10.4477 55.3909 11.2302M18.872 17.727C15.9863 18.6074 13.2637 18.1998 11.7801 17.8085C11.7394 18.4117 11.6742 18.6644 11.5763 18.7622C11.4622 18.8927 10.5166 19.4307 9.99494 18.6644C9.7667 18.2976 9.65257 17.6373 9.58736 17.0341C6.24523 15.5179 4.69643 13.2844 4.64752 13.2029C4.56601 13.1214 3.80791 12.3307 4.56601 11.3525C5.27519 10.4721 7.62284 9.58359 9.72594 9.23308C9.80745 7.43974 10.0031 6.05397 10.2558 5.44261C10.5574 4.70897 10.9405 5.36109 11.2829 5.85018C11.56 6.217 11.7312 7.79025 11.7475 9.04559C13.117 8.98038 13.9484 9.0782 15.4728 9.37165C17.4781 9.71402 18.8149 10.7411 18.7089 11.8986C18.6111 13.0398 17.5677 13.5126 17.1602 13.5452C16.7526 13.5779 16.1004 13.2762 16.1004 13.2762C15.644 13.0643 16.0597 12.8687 16.5895 12.6404C17.1765 12.3551 17.046 12.0698 17.046 12.0698C16.8341 11.4177 14.2337 10.9857 11.6497 10.9857C11.6497 12.4122 11.7068 14.7761 11.7475 16.1537C13.5572 16.4961 14.9103 16.4227 14.9103 16.4227C14.9103 16.4227 21.5131 16.2353 21.7006 12.0209C21.9044 7.7984 15.0978 3.75523 10.0846 2.48359C5.07955 1.17119 2.24282 2.10047 1.99827 2.22274C1.72927 2.35317 1.97382 2.40208 1.97382 2.40208C1.97382 2.40208 2.24282 2.44284 2.73191 2.60587C3.221 2.7689 2.82973 3.01344 2.82973 3.01344C1.97382 3.3069 1.02008 3.13572 0.832598 2.74444C0.645112 2.36132 0.954871 2.0108 1.32169 1.49726C1.66406 0.967405 2.05533 0.983708 2.05533 0.983708C8.25051 -1.17645 15.8151 2.69553 15.8151 2.69553C22.8907 6.26591 24.0971 10.464 23.9667 12.0943C23.8526 13.7001 23.2331 16.4146 18.872 17.7351M5.25889 11.8986C4.55786 12.2247 5.04695 12.7464 5.04695 12.7464C6.3675 14.1566 7.98151 15.0451 9.5303 15.5994C9.70964 13.154 9.69333 12.2818 9.69333 11.0509C7.29678 11.2139 5.91101 11.6052 5.25889 11.8986Z" fill="#646464"/>
</svg>
