<svg width="95" height="24" viewBox="0 0 95 24" fill="none" xmlns="http://www.w3.org/2000/svg">
<path fill-rule="evenodd" clip-rule="evenodd" d="M30.3433 18.8979L31.527 16.1474C32.8055 17.1034 34.509 17.6004 36.1897 17.6004C37.4303 17.6004 38.2156 17.1224 38.2156 16.3978C38.1966 14.3719 30.7834 15.9577 30.7265 10.8777C30.7075 8.29789 32.999 6.30991 36.2466 6.30991C38.1777 6.30991 40.1049 6.78793 41.4821 7.87677L40.3743 10.6842C39.1147 9.87993 37.5479 9.30706 36.0569 9.30706C35.0439 9.30706 34.3762 9.78508 34.3762 10.3959C34.3952 12.3839 41.8653 11.295 41.9412 16.1474C41.9412 18.7841 39.7066 20.6393 36.497 20.6393C34.1448 20.6355 31.9861 20.0816 30.3433 18.8979ZM75.7976 15.1534C75.2058 16.1853 74.0979 16.891 72.8156 16.891C70.9225 16.891 69.3973 15.3621 69.3973 13.4727C69.3973 11.5834 70.9263 10.0544 72.8156 10.0544C74.0942 10.0544 75.2058 10.7601 75.7976 11.792L79.0641 9.97857C77.8425 7.80089 75.4903 6.30991 72.8156 6.30991C68.8586 6.30991 65.649 9.51951 65.649 13.4765C65.649 17.4335 68.8586 20.6431 72.8156 20.6431C75.5093 20.6431 77.8425 19.1711 79.0641 16.9744L75.7976 15.1534ZM43.5839 0.364929H47.6737V20.37H43.5839V0.364929ZM80.6689 0.364929V20.37H84.7587V14.3681L89.6111 20.37H94.8466L88.674 13.2413L94.3875 6.59065H89.3796L84.7549 12.1107V0.364929H80.6689Z" fill="#646464"/>
<path d="M59.8255 15.1914C59.2336 16.1664 58.012 16.891 56.6348 16.891C54.7417 16.891 53.2166 15.3621 53.2166 13.4728C53.2166 11.5834 54.7455 10.0545 56.6348 10.0545C58.012 10.0545 59.2336 10.8171 59.8255 11.811V15.1914ZM59.8255 6.59449V8.21826C59.1578 7.09148 57.4961 6.30615 55.7547 6.30615C52.1619 6.30615 49.3354 9.47782 49.3354 13.4538C49.3354 17.4298 52.1619 20.6394 55.7547 20.6394C57.4923 20.6394 59.154 19.8578 59.8255 18.7273V20.351H63.9153V6.59449H59.8255Z" fill="#646464"/>
<path fill-rule="evenodd" clip-rule="evenodd" d="M5.06481 15.1724C5.06481 16.5685 3.93803 17.6953 2.54189 17.6953C1.14575 17.6953 0.0189693 16.5648 0.0189693 15.1724C0.0189693 13.7801 1.14575 12.6495 2.54189 12.6495H5.06481V15.1724ZM6.32438 15.1724C6.32438 13.7763 7.45115 12.6495 8.8473 12.6495C10.2434 12.6495 11.3702 13.7763 11.3702 15.1724V21.4778C11.3702 22.874 10.2434 24.0007 8.8473 24.0007C7.45115 24.0007 6.32438 22.874 6.32438 21.4778V15.1724Z" fill="#646464"/>
<path fill-rule="evenodd" clip-rule="evenodd" d="M8.8473 5.04658C7.45115 5.04658 6.32438 3.9198 6.32438 2.52365C6.32438 1.12751 7.45115 0.000732422 8.8473 0.000732422C10.2434 0.000732422 11.3702 1.12751 11.3702 2.52365V5.04658H8.8473ZM8.8473 6.32511C10.2434 6.32511 11.3702 7.45189 11.3702 8.84803C11.3702 10.2442 10.2434 11.371 8.8473 11.371H2.52292C1.12678 11.371 0 10.2404 0 8.84803C0 7.45568 1.12678 6.32511 2.52292 6.32511H8.8473Z" fill="#646464"/>
<path fill-rule="evenodd" clip-rule="evenodd" d="M18.9542 8.84803C18.9542 7.45189 20.0809 6.32511 21.4771 6.32511C22.8732 6.32511 24 7.45189 24 8.84803C24 10.2442 22.8732 11.371 21.4771 11.371H18.9542V8.84803ZM17.6946 8.84803C17.6946 10.2442 16.5678 11.371 15.1717 11.371C13.7755 11.371 12.6488 10.2442 12.6488 8.84803V2.52365C12.6488 1.12751 13.7755 0.000732422 15.1717 0.000732422C16.5678 0.000732422 17.6946 1.12751 17.6946 2.52365V8.84803Z" fill="#646464"/>
<path fill-rule="evenodd" clip-rule="evenodd" d="M15.1717 18.9549C16.5678 18.9549 17.6946 20.0817 17.6946 21.4778C17.6946 22.874 16.5678 24.0007 15.1717 24.0007C13.7755 24.0007 12.6488 22.874 12.6488 21.4778V18.9549H15.1717ZM15.1717 17.6953C13.7755 17.6953 12.6488 16.5685 12.6488 15.1724C12.6488 13.7763 13.7755 12.6495 15.1717 12.6495H21.496C22.8922 12.6495 24.019 13.7763 24.019 15.1724C24.019 16.5685 22.8922 17.6953 21.496 17.6953H15.1717Z" fill="#646464"/>
</svg>
