<svg width="90" height="24" viewBox="0 0 90 24" fill="none" xmlns="http://www.w3.org/2000/svg">
<path d="M12.5667 22.4538C11.2309 22.6883 9.87147 22.7587 8.46525 22.946L4.17609 10.3836V23.4852C2.8402 23.6257 1.62148 23.8132 0.355835 24.0007V0.000732422H3.91843L8.79333 13.6181V0.000732422H12.5667V22.4538ZM19.9496 8.7898C21.4028 8.7898 23.6294 8.71947 24.9652 8.71947V12.4694C23.3011 12.4694 21.3559 12.4694 19.9496 12.5397V18.1179C22.1528 17.9774 24.3559 17.7897 26.5824 17.7194V21.3285L16.1995 22.149V0.000732422H26.5824V3.75074H19.9496V8.7898ZM40.5277 3.75082H36.6371V21.0008C35.3714 21.0008 34.1058 21.0008 32.8872 21.0475V3.75082H28.9967V0.000732422H40.5278L40.5277 3.75082ZM46.6214 8.53206H51.7543V12.282H46.6214V20.7899H42.9414V0.000732422H53.4183V3.75074H46.6214V8.53206ZM59.512 17.5085C61.6449 17.5553 63.801 17.7196 65.8871 17.8366V21.5398C62.5355 21.3287 59.1839 21.118 55.7621 21.0475V0.000732422H59.512V17.5085ZM69.0511 21.7976C70.2464 21.868 71.512 21.9384 72.7307 22.0788V0.000732422H69.0511V21.7976ZM89.1606 0.000732422L84.4027 11.4148L89.1606 24.0007C87.7542 23.8132 86.348 23.5554 84.9417 23.321L82.2465 16.3836L79.5045 22.7587C78.1449 22.5241 76.8324 22.4538 75.4733 22.2663L80.3013 11.2741L75.9418 0.000732422H79.9729L82.4339 6.30543L85.059 0.000732422H89.1606V0.000732422Z" fill="#646464"/>
</svg>
