<svg width="92" height="24" viewBox="0 0 92 24" fill="none" xmlns="http://www.w3.org/2000/svg">
<path d="M10.2811 0.000732422H0.245667V24.0007L10.2811 0.000732422Z" fill="#646464"/>
<path d="M17.3418 0.000732422H27.3642V24.0007L17.3418 0.000732422Z" fill="#646464"/>
<path d="M13.8115 8.84628L20.1988 24.0007H16.0081L14.0991 19.1759H9.42464L13.8115 8.84628Z" fill="#646464"/>
<path d="M43.7362 15.2632L44.9195 18.6563C44.9587 18.7413 45.0176 18.7805 45.1222 18.7805H47.3973C47.5215 18.7805 47.5412 18.7216 47.5215 18.5974L42.8209 5.54159C42.8013 5.43699 42.7817 5.41737 42.6771 5.41737H39.8528C39.7743 5.41737 39.7286 5.47621 39.7286 5.5612C39.6893 6.24767 39.6305 6.45687 39.5455 6.65954L35.3548 18.5778C35.3352 18.7217 35.381 18.7805 35.4986 18.7805H37.5319C37.6561 18.7805 37.7149 18.7413 37.7607 18.617L38.8787 15.2632H43.7362ZM39.5259 13.0469C40.1404 11.1902 40.9511 8.81046 41.278 7.45061H41.2976C41.703 8.87583 42.6575 11.7001 43.089 13.0469H39.5259Z" fill="#646464"/>
<path d="M53.5645 18.9832C54.7871 18.9832 56.0881 18.7609 57.4087 18.1921C57.5133 18.1529 57.5329 18.1071 57.5329 18.009C57.4937 17.6429 57.4479 17.1134 57.4479 16.708V4.4171C57.4479 4.33865 57.4479 4.29942 57.3499 4.29942H55.1336C55.0486 4.29942 55.0094 4.33865 55.0094 4.44325V8.60779C54.6629 8.56856 54.421 8.54895 54.1333 8.54895C50.5572 8.54895 48.3605 10.9091 48.3605 13.8576C48.3605 17.2768 50.616 18.9832 53.5645 18.9832ZM55.0094 16.708C54.6432 16.8257 54.2379 16.8715 53.826 16.8715C52.2047 16.8715 50.8775 15.9562 50.8775 13.7334C50.8775 11.7655 52.2439 10.6018 54.0549 10.6018C54.421 10.6018 54.7413 10.641 55.0094 10.7456V16.708Z" fill="#646464"/>
<path d="M64.6033 8.54895C61.5502 8.54895 59.6608 10.8895 59.6608 13.7791C59.6608 16.3615 61.1645 18.9832 64.5576 18.9832C67.4276 18.9832 69.4413 16.8715 69.4413 13.7138C69.4413 10.9287 67.7349 8.54895 64.6033 8.54895ZM64.4791 10.6018C66.2051 10.6018 66.9373 12.0859 66.9373 13.7791C66.9373 15.8712 65.8586 16.9107 64.6033 16.9107C63.0539 16.9107 62.1386 15.6097 62.1386 13.7334C62.1386 11.8047 63.1127 10.6018 64.4791 10.6018Z" fill="#646464"/>
<path d="M71.7326 4.29942C71.6476 4.29942 71.5888 4.33865 71.5888 4.44325V18.3555C71.5888 18.4144 71.6476 18.519 71.7326 18.5386C72.7067 18.8393 73.7266 18.9832 74.7792 18.9832C77.7931 18.9832 80.722 17.1134 80.722 13.3476C80.722 10.6214 78.8522 8.54895 75.9233 8.54895C75.2499 8.54895 74.6223 8.65355 74.0731 8.83661L74.0469 4.46286C74.0469 4.31904 74.0077 4.29942 73.8639 4.29942H71.7326ZM78.218 13.5961C78.218 15.8516 76.6751 16.9107 75.008 16.9107C74.6615 16.9107 74.3542 16.8911 74.0731 16.8061V10.8698C74.3934 10.7456 74.7792 10.641 75.4918 10.641C77.1001 10.641 78.218 11.6609 78.218 13.5961Z" fill="#646464"/>
<path d="M88.9931 14.3283C89.9869 14.3283 90.8041 14.3087 91.0852 14.2433C91.1898 14.2237 91.229 14.1845 91.2486 14.0995C91.3075 13.8772 91.3336 13.413 91.3336 12.8442C91.3336 10.9091 90.1699 8.54895 87.1626 8.54895C84.0898 8.54895 82.3835 11.0529 82.3835 13.8772C82.3835 16.3811 83.7041 18.9832 87.4045 18.9832C88.7905 18.9832 89.6861 18.7609 90.4576 18.3948C90.536 18.3555 90.5753 18.2902 90.5753 18.1725V16.4792C90.5753 16.3811 90.5164 16.3615 90.4576 16.4008C89.6861 16.7276 88.8493 16.8911 87.934 16.8911C85.8616 16.8911 84.9201 15.747 84.8613 14.3283H88.9931ZM84.8613 12.5762C85.0247 11.5825 85.6523 10.5037 87.058 10.5037C88.6074 10.5037 89.0127 11.8047 89.0127 12.3931C89.0127 12.4127 89.0127 12.4977 89.0127 12.5566C88.9278 12.5762 88.6662 12.5762 87.8948 12.5762H84.8613Z" fill="#646464"/>
</svg>
