<svg width="74" height="25" viewBox="0 0 74 25" fill="none" xmlns="http://www.w3.org/2000/svg">
<path d="M9.43937 0H10.0932C12.3633 0.0493486 14.5963 0.962297 16.2001 2.57846C15.6079 3.18298 15.0034 3.76283 14.4236 4.36735C13.523 3.5531 12.4373 2.9239 11.2529 2.70183C9.50105 2.33172 7.61347 2.66482 6.14535 3.66413C4.54152 4.71279 3.45585 6.48934 3.22145 8.38925C2.96237 10.2645 3.49286 12.2384 4.71424 13.6942C5.88627 15.113 7.67516 16.0013 9.52573 16.063C11.2529 16.1617 13.0542 15.6312 14.3125 14.4221C15.2995 13.5709 15.756 12.2755 15.904 11.0171C13.8561 11.0171 11.8081 11.0294 9.76013 11.0171V8.47561H18.3838C18.8279 11.2021 18.1864 14.2741 16.1138 16.2233C14.732 17.6051 12.8197 18.4193 10.8705 18.5797C8.98289 18.7648 7.03363 18.407 5.35577 17.4941C3.34482 16.4207 1.74099 14.6072 0.951413 12.4728C0.211184 10.5112 0.198847 8.29056 0.889727 6.31662C1.51892 4.51539 2.72796 2.9239 4.28244 1.81356C5.77524 0.715554 7.5888 0.111034 9.43937 0Z" fill="#646464"/>
<path d="M58.9113 0.641532H61.5514V18.259C60.6755 18.259 59.7873 18.2713 58.9113 18.2466C58.9237 12.3865 58.9113 6.51401 58.9113 0.641532Z" fill="#646464"/>
<path d="M24.2563 6.74842C25.8848 6.43999 27.649 6.78543 28.9938 7.76007C30.2152 8.62367 31.0664 9.98075 31.3255 11.4612C31.6586 13.1761 31.2391 15.0513 30.1288 16.4084C28.9321 17.9259 26.9705 18.7401 25.0582 18.6167C23.3063 18.518 21.6038 17.6421 20.5675 16.211C19.3955 14.6318 19.1117 12.4605 19.7532 10.6099C20.3948 8.62366 22.2083 7.1062 24.2563 6.74842ZM24.6264 9.09248C23.9602 9.2652 23.3434 9.64765 22.8992 10.1905C21.7025 11.6216 21.7765 13.9533 23.0966 15.2857C23.8492 16.0506 24.9842 16.4084 26.0329 16.1987C27.0075 16.0259 27.8588 15.3721 28.3276 14.5085C29.1418 13.0404 28.9074 11.0171 27.6614 9.86972C26.8594 9.12949 25.6874 8.82106 24.6264 9.09248Z" fill="#646464"/>
<path d="M37.3337 6.74842C39.1966 6.39064 41.2322 6.9088 42.6263 8.21654C44.8963 10.2522 45.1431 14.0643 43.2061 16.4084C42.0341 17.8888 40.1342 18.7031 38.2589 18.6167C36.4701 18.5674 34.7059 17.6791 33.6449 16.211C32.4482 14.5948 32.1891 12.3741 32.8676 10.4866C33.5462 8.56198 35.3227 7.09386 37.3337 6.74842ZM37.7038 9.09247C37.0376 9.26519 36.4207 9.64764 35.9766 10.1781C34.7922 11.5846 34.8416 13.8793 36.1123 15.224C36.8648 16.0259 38.0369 16.4207 39.1225 16.1986C40.0848 16.0136 40.9484 15.3721 41.4172 14.5085C42.2192 13.028 41.9847 11.0047 40.7264 9.85737C39.9245 9.11715 38.7524 8.82105 37.7038 9.09247Z" fill="#646464"/>
<path d="M48.4248 7.46398C49.8435 6.5757 51.7311 6.32896 53.2609 7.09386C53.7421 7.30359 54.1369 7.66137 54.5193 8.01915C54.5317 7.68604 54.5193 7.3406 54.5317 6.99516C55.3582 7.0075 56.1848 6.99516 57.0238 7.0075V17.8889C57.0114 19.5297 56.592 21.2692 55.4076 22.4659C54.1122 23.786 52.1259 24.1931 50.337 23.9217C48.4248 23.638 46.7593 22.2439 46.019 20.4797C46.7593 20.1219 47.5365 19.8381 48.3014 19.505C48.7332 20.5167 49.6091 21.3803 50.7071 21.5777C51.8051 21.7751 53.0759 21.5036 53.7914 20.5907C54.5563 19.6531 54.5563 18.37 54.5193 17.2227C53.9518 17.7778 53.2979 18.2713 52.5084 18.4564C50.7935 18.9375 48.9059 18.3453 47.5858 17.1856C46.2534 16.026 45.4639 14.2371 45.5379 12.4605C45.5749 10.4496 46.7099 8.51263 48.4248 7.46398ZM50.9786 9.04313C50.226 9.1665 49.5228 9.58596 49.0416 10.1658C47.8819 11.5476 47.8819 13.7559 49.054 15.113C49.7202 15.9149 50.7935 16.3591 51.8298 16.248C52.8045 16.1493 53.7051 15.5325 54.1862 14.6812C55.0005 13.2378 54.8648 11.2762 53.7668 10.0178C53.0882 9.24052 52.0025 8.85807 50.9786 9.04313Z" fill="#646464"/>
<path d="M64.7222 8.09318C66.2026 6.71142 68.485 6.24261 70.385 6.9705C72.1862 7.64905 73.3336 9.36391 73.9134 11.1281C71.2362 12.2385 68.5714 13.3365 65.8942 14.4468C66.2643 15.15 66.8318 15.7916 67.5967 16.0506C68.6701 16.4331 69.9532 16.2974 70.8538 15.5818C71.2116 15.3104 71.4953 14.9526 71.7667 14.6072C72.4453 15.0637 73.1238 15.5078 73.8024 15.9643C72.8401 17.4077 71.2239 18.4194 69.4843 18.5797C67.5597 18.8142 65.5117 18.0739 64.2657 16.5688C62.2177 14.2001 62.4151 10.2275 64.7222 8.09318ZM66.0422 10.3756C65.6228 10.9801 65.4501 11.7203 65.4624 12.4482C67.2513 11.708 69.0402 10.9677 70.8291 10.2152C70.533 9.52429 69.8174 9.10483 69.0895 8.99379C67.9175 8.78406 66.6961 9.41326 66.0422 10.3756Z" fill="#646464"/>
</svg>
