<svg width="58" height="24" viewBox="0 0 58 24" fill="none" xmlns="http://www.w3.org/2000/svg">
<path fill-rule="evenodd" clip-rule="evenodd" d="M6.31357 10.801C5.07127 10.3415 4.39045 9.98409 4.39045 9.42248C4.39045 8.94588 4.78192 8.67363 5.47971 8.67363C6.75609 8.67363 8.06642 9.16721 8.96844 9.6096L9.47899 6.46128C8.76422 6.12087 7.30059 5.55926 5.27549 5.55926C3.84595 5.55926 2.65457 5.93362 1.80374 6.63142C0.9187 7.36317 0.459204 8.41835 0.459204 9.69474C0.459204 12.0092 1.87177 12.9964 4.16925 13.8302C5.64985 14.3577 6.14343 14.7322 6.14343 15.3108C6.14343 15.8724 5.66683 16.1957 4.79889 16.1957C3.72673 16.1957 1.95691 15.6682 0.799614 14.9875L0.289062 18.1699C1.27609 18.7315 3.11407 19.3101 5.02022 19.3101C6.53477 19.3101 7.79417 18.9527 8.64513 18.272C9.59808 17.5232 10.0917 16.4171 10.0917 14.9875C10.0917 12.6219 8.64513 11.6348 6.31357 10.801V10.801ZM18.403 8.94588L18.9136 5.81454H16.2183V2.01321L12.5944 2.60954L12.0711 5.81454L10.7965 6.02131L10.3194 8.94588H12.0658V15.0896C12.0658 16.6893 12.4743 17.7955 13.3081 18.4762C14.0059 19.0379 15.0099 19.3101 16.4225 19.3101C17.5116 19.3101 18.1753 19.123 18.6348 19.0038V15.6852C18.3796 15.7533 17.801 15.8724 17.4095 15.8724C16.5757 15.8724 16.2183 15.447 16.2183 14.477V8.94588H18.403ZM26.4973 5.63163C25.3061 5.63163 24.353 6.25706 23.9787 7.38027L23.7234 5.81454H20.0304V19.0548H24.2509V10.4606C24.7786 9.81382 25.5273 9.57999 26.5484 9.57999C26.7697 9.57999 27.0079 9.57999 27.2972 9.63104V5.73374C27.0079 5.66571 26.7526 5.63163 26.4973 5.63163ZM30.4457 4.50407C31.671 4.50407 32.658 3.50007 32.658 2.27474C32.658 1.03231 31.671 0.0452881 30.4457 0.0452881C29.2033 0.0452881 28.2162 1.03231 28.2162 2.27474C28.2162 3.50007 29.2033 4.50407 30.4457 4.50407V4.50407ZM28.3183 5.81454H32.5559V19.0548H28.3183V5.81454V5.81454ZM44.5645 7.00578C43.8156 6.03573 42.7775 5.55926 41.4501 5.55926C40.2248 5.55926 39.1526 6.06981 38.1485 7.14197L37.9273 5.81454H34.2172V23.9561L38.4378 23.2585V19.0038C39.0845 19.208 39.7482 19.3101 40.3439 19.3101C41.399 19.3101 42.9307 19.0379 44.1219 17.7445C45.2621 16.5021 45.8408 14.5791 45.8408 12.0433C45.8408 9.79685 45.4153 8.09505 44.5645 7.00578ZM41.0586 15.1746C40.7182 15.8214 40.1907 16.1618 39.578 16.1618C39.1526 16.1618 38.7781 16.0766 38.4378 15.9065V9.6096C39.1526 8.86088 39.7992 8.77574 40.0375 8.77574C41.1097 8.77574 41.6372 9.93304 41.6372 12.1964C41.6372 13.4898 41.4501 14.4939 41.0586 15.1746V15.1746ZM57.9409 12.3155C57.9409 10.2053 57.4814 8.53744 56.5794 7.36317C55.6604 6.17192 54.2819 5.55926 52.5291 5.55926C48.9381 5.55926 46.7088 8.21413 46.7088 12.4687C46.7088 14.8513 47.3043 16.6383 48.4786 17.7784C49.5338 18.7996 51.0485 19.3101 53.0055 19.3101C54.8094 19.3101 56.4773 18.8847 57.5325 18.1869L57.073 15.2938C56.0348 15.8555 54.8266 16.1618 53.465 16.1618C52.6482 16.1618 52.0865 15.9915 51.6781 15.6341C51.2356 15.2598 50.9803 14.6471 50.8953 13.7792H57.8899C57.9068 13.5749 57.9409 12.6219 57.9409 12.3155V12.3155ZM50.8612 11.1923C50.9803 9.30327 51.4909 8.41835 52.4609 8.41835C53.414 8.41835 53.9076 9.32037 53.9756 11.1923H50.8612V11.1923Z" fill="#646464"/>
</svg>
